<svg id="Layer_1" data-name="Layer 1" xmlns="http://www.w3.org/2000/svg" viewBox="0 0 824.22 688.43"><defs><style>.cls-1{fill:#fff;}</style></defs><title>logo2</title><rect class="cls-1" x="572.16" y="224.65" width="176.1" height="330.81" rx="88.05" ry="88.05" transform="translate(268.77 1045.26) rotate(-90)"/><rect class="cls-1" x="571.83" y="-72.35" width="176.1" height="330.81" rx="88.05" ry="88.05" transform="translate(565.44 747.92) rotate(-90)"/><path class="cls-1" d="M470.42,593.48V93.37a88,88,0,0,0-88-88h0a88,88,0,0,0-88,88V289.14L164.73,75.51A88,88,0,0,0,43.79,45.89h0A88,88,0,0,0,14.17,166.84L302.08,641.47a89,89,0,0,0,126.76,39.2h0A88.06,88.06,0,0,0,470.42,593.48Z" transform="translate(-1.39 -5)"/></svg>